<svg width="100" height="100" viewBox="0 0 100 100" fill="none" xmlns="http://www.w3.org/2000/svg">
<rect width="100" height="100" fill="#F5F5F5"/>
<g id="A1">
<rect width="100" height="100" fill="white"/>
<g id="trail">
<path id="Vector 2" d="M40 6L60 6" stroke="black" stroke-width="2"/>
<path id="Vector 3" d="M40 18H60" stroke="black" stroke-width="2"/>
<path id="Vector 4" d="M40 30H60" stroke="black" stroke-width="2"/>
<rect id="Rectangle 4" x="49" width="2" height="37" fill="black"/>
</g>
<path id="Vector 6" d="M50 37V50M37 50H63" stroke="black" stroke-width="2"/>
<g id="Group 1">
<path id="Vector 7" d="M43 43.0001L50 50.0001L57 57.0001" stroke="black" stroke-width="2"/>
<path id="Vector 8" d="M43 56.9999L50 49.9999L57 42.9999" stroke="black" stroke-width="2"/>
</g>
<g id="trail_2">
<path id="Vector 2_2" d="M6 60L6 40" stroke="black" stroke-width="2"/>
<path id="Vector 3_2" d="M18 60L18 40" stroke="black" stroke-width="2"/>
<path id="Vector 4_2" d="M30 60L30 40" stroke="black" stroke-width="2"/>
<rect id="Rectangle 4_2" y="51" width="2" height="37" transform="rotate(-90 0 51)" fill="black"/>
</g>
<g id="trail_3">
<path id="Vector 2_3" d="M69 60V40" stroke="black" stroke-width="2"/>
<path id="Vector 3_3" d="M81 60V40" stroke="black" stroke-width="2"/>
<path id="Vector 4_3" d="M93 60V40" stroke="black" stroke-width="2"/>
<rect id="Rectangle 4_3" x="63" y="51" width="2" height="37" transform="rotate(-90 63 51)" fill="black"/>
</g>
</g>
</svg>
