<svg width="100" height="100" viewBox="0 0 100 100" fill="none" xmlns="http://www.w3.org/2000/svg">
<rect width="100" height="100" fill="#F5F5F5"/>
<g id="S1" clip-path="url(#clip0_0_1)">
<rect width="100" height="100" fill="white"/>
<rect id="station" x="37" y="37" width="26" height="26" fill="black"/>
<g id="trail">
<path id="Vector 2" d="M40 6L60 6" stroke="black" stroke-width="2"/>
<path id="Vector 3" d="M40 18H60" stroke="black" stroke-width="2"/>
<path id="Vector 4" d="M40 30H60" stroke="black" stroke-width="2"/>
<rect id="Rectangle 4" x="49" width="2" height="37" fill="black"/>
</g>
<g id="trail_2">
<path id="Vector 2_2" d="M6 60L6 40" stroke="black" stroke-width="2"/>
<path id="Vector 3_2" d="M18 60L18 40" stroke="black" stroke-width="2"/>
<path id="Vector 4_2" d="M30 60L30 40" stroke="black" stroke-width="2"/>
<rect id="Rectangle 4_2" y="51" width="2" height="37" transform="rotate(-90 0 51)" fill="black"/>
</g>
<g id="trail_3">
<path id="Vector 2_3" d="M69 60V40" stroke="black" stroke-width="2"/>
<path id="Vector 3_3" d="M81 60V40" stroke="black" stroke-width="2"/>
<path id="Vector 4_3" d="M93 60V40" stroke="black" stroke-width="2"/>
<rect id="Rectangle 4_3" x="63" y="51" width="2" height="37" transform="rotate(-90 63 51)" fill="black"/>
</g>
<g id="road">
<g id="Rectangle 3">
<mask id="path-14-inside-1_0_1" fill="white">
<path d="M60 63V100H40V63H60Z"/>
</mask>
<path d="M60 63V100H40V63H60Z" fill="white"/>
<path d="M58 63V100H62V63H58ZM42 100V63H38V100H42Z" fill="black" mask="url(#path-14-inside-1_0_1)"/>
</g>
<rect id="Rectangle 4_4" x="51" y="96" width="2" height="9" transform="rotate(180 51 96)" fill="black"/>
<rect id="Rectangle 5" x="51" y="82" width="2" height="9" transform="rotate(180 51 82)" fill="black"/>
<rect id="Rectangle 6" x="51" y="68" width="2" height="9" transform="rotate(180 51 68)" fill="black"/>
</g>
</g>
<defs>
<clipPath id="clip0_0_1">
<rect width="100" height="100" fill="white"/>
</clipPath>
</defs>
</svg>
