<svg width="100" height="100" viewBox="0 0 100 100" fill="none" xmlns="http://www.w3.org/2000/svg">
<rect width="100" height="100" fill="#F5F5F5"/>
<g id="S5" clip-path="url(#clip0_0_1)">
<rect width="100" height="100" transform="matrix(0 -1 1 0 -6.10352e-05 100)" fill="white"/>
<rect id="station" x="36.9999" y="63.0001" width="26" height="26" transform="rotate(-90 36.9999 63.0001)" fill="black"/>
<g id="trail">
<path id="Vector 2" d="M68.9999 60.0001V40.0001" stroke="black" stroke-width="2"/>
<path id="Vector 3" d="M80.9999 60.0001V40.0001" stroke="black" stroke-width="2"/>
<path id="Vector 4" d="M92.9999 60.0001V40.0001" stroke="black" stroke-width="2"/>
<rect id="Rectangle 4" x="62.9999" y="51.0001" width="2" height="37" transform="rotate(-90 62.9999 51.0001)" fill="black"/>
</g>
<g id="trail_2">
<path id="Vector 2_2" d="M5.99994 60.0001L5.99994 40.0001" stroke="black" stroke-width="2"/>
<path id="Vector 3_2" d="M17.9999 60.0001L17.9999 40.0001" stroke="black" stroke-width="2"/>
<path id="Vector 4_2" d="M29.9999 60.0001L29.9999 40.0001" stroke="black" stroke-width="2"/>
<rect id="Rectangle 4_2" x="-6.10352e-05" y="51.0001" width="2" height="37" transform="matrix(0 -1 1 0 -51.0002 51)" fill="black"/>
</g>
<g id="road">
<g id="Rectangle 3">
<mask id="path-10-inside-1_0_1" fill="white">
<path d="M59.9999 63.0001L59.9999 100H39.9999L39.9999 63.0001L59.9999 63.0001Z"/>
</mask>
<path d="M59.9999 63.0001L59.9999 100H39.9999L39.9999 63.0001L59.9999 63.0001Z" fill="white"/>
<path d="M57.9999 63.0001L57.9999 100H61.9999L61.9999 63.0001H57.9999ZM41.9999 100L41.9999 63.0001H37.9999L37.9999 100H41.9999Z" fill="black" mask="url(#path-10-inside-1_0_1)"/>
</g>
<rect id="Rectangle 4_3" x="50.9999" y="96.0001" width="2" height="9" transform="matrix(-1 0 0 -1 102 192)" fill="black"/>
<rect id="Rectangle 5" x="50.9999" y="82.0001" width="2" height="9" transform="matrix(-1 0 0 -1 102 164)" fill="black"/>
<rect id="Rectangle 6" x="50.9999" y="68.0001" width="2" height="9" transform="matrix(-1 0 0 -1 102 136)" fill="black"/>
</g>
<g id="road_2">
<g id="Rectangle 3_2">
<mask id="path-15-inside-2_0_1" fill="white">
<path d="M39.9999 37.0001L39.9999 9.15527e-05H59.9999V37.0001H39.9999Z"/>
</mask>
<path d="M39.9999 37.0001L39.9999 9.15527e-05H59.9999V37.0001H39.9999Z" fill="white"/>
<path d="M41.9999 37.0001L41.9999 9.15527e-05H37.9999L37.9999 37.0001H41.9999ZM57.9999 9.15527e-05V37.0001H61.9999V9.15527e-05H57.9999Z" fill="black" mask="url(#path-15-inside-2_0_1)"/>
</g>
<rect id="Rectangle 4_4" x="48.9999" y="4.00009" width="2" height="9" fill="black"/>
<rect id="Rectangle 5_2" x="48.9999" y="18.0001" width="2" height="9" fill="black"/>
<rect id="Rectangle 6_2" x="48.9999" y="32.0001" width="2" height="9" fill="black"/>
</g>
</g>
<defs>
<clipPath id="clip0_0_1">
<rect width="100" height="100" fill="white" transform="matrix(0 -1 1 0 -6.10352e-05 100)"/>
</clipPath>
</defs>
</svg>
